<svg xmlns="http://www.w3.org/2000/svg" width="100%" height="20" viewBox="0 0 800 20">
  <defs>
    <filter id="glow">
      <feGaussianBlur stdDeviation="1" result="coloredBlur"/>
      <feMerge>
        <feMergeNode in="coloredBlur"/>
        <feMergeNode in="SourceGraphic"/>
      </feMerge>
    </filter>
  </defs>
  <rect width="800" height="20" fill="#0D1117"/>
  <!-- Pixel divider line with glow -->
  <g filter="url(#glow)">
    <rect x="0" y="8" width="4" height="4" fill="#00FF9F" opacity="0.3"/>
    <rect x="8" y="8" width="4" height="4" fill="#00FF9F" opacity="0.5"/>
    <rect x="16" y="8" width="4" height="4" fill="#00FF9F" opacity="0.7"/>
    <rect x="24" y="8" width="4" height="4" fill="#00FF9F" opacity="0.9"/>
    <rect x="32" y="8" width="4" height="4" fill="#00FF9F" opacity="1"/>
    <rect x="40" y="8" width="4" height="4" fill="#00FF9F" opacity="1"/>
    <rect x="48" y="8" width="4" height="4" fill="#00FF9F" opacity="1"/>
    <rect x="56" y="8" width="4" height="4" fill="#00FF9F" opacity="1"/>
    <rect x="64" y="8" width="4" height="4" fill="#00FF9F" opacity="1"/>
    <rect x="72" y="8" width="4" height="4" fill="#00FF9F" opacity="1"/>
    <rect x="80" y="8" width="4" height="4" fill="#00FF9F" opacity="1"/>
    <rect x="88" y="8" width="4" height="4" fill="#00FF9F" opacity="1"/>
    <rect x="96" y="8" width="4" height="4" fill="#00FF9F" opacity="1"/>
    <rect x="104" y="8" width="4" height="4" fill="#00FF9F" opacity="1"/>
    <rect x="112" y="8" width="4" height="4" fill="#00FF9F" opacity="1"/>
    <rect x="120" y="8" width="4" height="4" fill="#00FF9F" opacity="1"/>
    <rect x="128" y="8" width="4" height="4" fill="#00FF9F" opacity="1"/>
    <rect x="136" y="8" width="4" height="4" fill="#00FF9F" opacity="1"/>
    <rect x="144" y="8" width="4" height="4" fill="#00FF9F" opacity="1"/>
    <rect x="152" y="8" width="4" height="4" fill="#00FF9F" opacity="1"/>
    <rect x="160" y="8" width="4" height="4" fill="#00FF9F" opacity="1"/>
    <rect x="168" y="8" width="4" height="4" fill="#00FF9F" opacity="1"/>
    <rect x="176" y="8" width="4" height="4" fill="#00FF9F" opacity="1"/>
    <rect x="184" y="8" width="4" height="4" fill="#00FF9F" opacity="1"/>
    <rect x="192" y="8" width="4" height="4" fill="#00FF9F" opacity="1"/>
    <rect x="200" y="8" width="4" height="4" fill="#00FF9F" opacity="1"/>
    <rect x="208" y="8" width="4" height="4" fill="#00FF9F" opacity="1"/>
    <rect x="216" y="8" width="4" height="4" fill="#00FF9F" opacity="1"/>
    <rect x="224" y="8" width="4" height="4" fill="#00FF9F" opacity="1"/>
    <rect x="232" y="8" width="4" height="4" fill="#00FF9F" opacity="1"/>
    <rect x="240" y="8" width="4" height="4" fill="#00FF9F" opacity="1"/>
    <rect x="248" y="8" width="4" height="4" fill="#00FF9F" opacity="1"/>
    <rect x="256" y="8" width="4" height="4" fill="#00FF9F" opacity="1"/>
    <rect x="264" y="8" width="4" height="4" fill="#00FF9F" opacity="1"/>
    <rect x="272" y="8" width="4" height="4" fill="#00FF9F" opacity="1"/>
    <rect x="280" y="8" width="4" height="4" fill="#00FF9F" opacity="1"/>
    <rect x="288" y="8" width="4" height="4" fill="#00FF9F" opacity="1"/>
    <rect x="296" y="8" width="4" height="4" fill="#00FF9F" opacity="1"/>
    <rect x="304" y="8" width="4" height="4" fill="#00FF9F" opacity="1"/>
    <rect x="312" y="8" width="4" height="4" fill="#00FF9F" opacity="1"/>
    <rect x="320" y="8" width="4" height="4" fill="#00FF9F" opacity="1"/>
    <rect x="328" y="8" width="4" height="4" fill="#00FF9F" opacity="1"/>
    <rect x="336" y="8" width="4" height="4" fill="#00FF9F" opacity="1"/>
    <rect x="344" y="8" width="4" height="4" fill="#00FF9F" opacity="1"/>
    <rect x="352" y="8" width="4" height="4" fill="#00FF9F" opacity="1"/>
    <rect x="360" y="8" width="4" height="4" fill="#00FF9F" opacity="1"/>
    <rect x="368" y="8" width="4" height="4" fill="#00FF9F" opacity="1"/>
    <rect x="376" y="8" width="4" height="4" fill="#00FF9F" opacity="1"/>
    <rect x="384" y="8" width="4" height="4" fill="#00FF9F" opacity="1"/>
    <rect x="392" y="8" width="4" height="4" fill="#00FF9F" opacity="1"/>
    <rect x="400" y="8" width="4" height="4" fill="#00FF9F" opacity="1"/>
    <rect x="408" y="8" width="4" height="4" fill="#00FF9F" opacity="1"/>
    <rect x="416" y="8" width="4" height="4" fill="#00FF9F" opacity="1"/>
    <rect x="424" y="8" width="4" height="4" fill="#00FF9F" opacity="1"/>
    <rect x="432" y="8" width="4" height="4" fill="#00FF9F" opacity="1"/>
    <rect x="440" y="8" width="4" height="4" fill="#00FF9F" opacity="1"/>
    <rect x="448" y="8" width="4" height="4" fill="#00FF9F" opacity="1"/>
    <rect x="456" y="8" width="4" height="4" fill="#00FF9F" opacity="1"/>
    <rect x="464" y="8" width="4" height="4" fill="#00FF9F" opacity="1"/>
    <rect x="472" y="8" width="4" height="4" fill="#00FF9F" opacity="1"/>
    <rect x="480" y="8" width="4" height="4" fill="#00FF9F" opacity="1"/>
    <rect x="488" y="8" width="4" height="4" fill="#00FF9F" opacity="1"/>
    <rect x="496" y="8" width="4" height="4" fill="#00FF9F" opacity="1"/>
    <rect x="504" y="8" width="4" height="4" fill="#00FF9F" opacity="1"/>
    <rect x="512" y="8" width="4" height="4" fill="#00FF9F" opacity="1"/>
    <rect x="520" y="8" width="4" height="4" fill="#00FF9F" opacity="1"/>
    <rect x="528" y="8" width="4" height="4" fill="#00FF9F" opacity="1"/>
    <rect x="536" y="8" width="4" height="4" fill="#00FF9F" opacity="1"/>
    <rect x="544" y="8" width="4" height="4" fill="#00FF9F" opacity="1"/>
    <rect x="552" y="8" width="4" height="4" fill="#00FF9F" opacity="1"/>
    <rect x="560" y="8" width="4" height="4" fill="#00FF9F" opacity="1"/>
    <rect x="568" y="8" width="4" height="4" fill="#00FF9F" opacity="1"/>
    <rect x="576" y="8" width="4" height="4" fill="#00FF9F" opacity="1"/>
    <rect x="584" y="8" width="4" height="4" fill="#00FF9F" opacity="1"/>
    <rect x="592" y="8" width="4" height="4" fill="#00FF9F" opacity="1"/>
    <rect x="600" y="8" width="4" height="4" fill="#00FF9F" opacity="1"/>
    <rect x="608" y="8" width="4" height="4" fill="#00FF9F" opacity="1"/>
    <rect x="616" y="8" width="4" height="4" fill="#00FF9F" opacity="1"/>
    <rect x="624" y="8" width="4" height="4" fill="#00FF9F" opacity="1"/>
    <rect x="632" y="8" width="4" height="4" fill="#00FF9F" opacity="1"/>
    <rect x="640" y="8" width="4" height="4" fill="#00FF9F" opacity="1"/>
    <rect x="648" y="8" width="4" height="4" fill="#00FF9F" opacity="1"/>
    <rect x="656" y="8" width="4" height="4" fill="#00FF9F" opacity="1"/>
    <rect x="664" y="8" width="4" height="4" fill="#00FF9F" opacity="1"/>
    <rect x="672" y="8" width="4" height="4" fill="#00FF9F" opacity="1"/>
    <rect x="680" y="8" width="4" height="4" fill="#00FF9F" opacity="1"/>
    <rect x="688" y="8" width="4" height="4" fill="#00FF9F" opacity="1"/>
    <rect x="696" y="8" width="4" height="4" fill="#00FF9F" opacity="1"/>
    <rect x="704" y="8" width="4" height="4" fill="#00FF9F" opacity="1"/>
    <rect x="712" y="8" width="4" height="4" fill="#00FF9F" opacity="1"/>
    <rect x="720" y="8" width="4" height="4" fill="#00FF9F" opacity="1"/>
    <rect x="728" y="8" width="4" height="4" fill="#00FF9F" opacity="1"/>
    <rect x="736" y="8" width="4" height="4" fill="#00FF9F" opacity="1"/>
    <rect x="744" y="8" width="4" height="4" fill="#00FF9F" opacity="1"/>
    <rect x="752" y="8" width="4" height="4" fill="#00FF9F" opacity="1"/>
    <rect x="760" y="8" width="4" height="4" fill="#00FF9F" opacity="1"/>
    <rect x="768" y="8" width="4" height="4" fill="#00FF9F" opacity="1"/>
    <rect x="776" y="8" width="4" height="4" fill="#00FF9F" opacity="1"/>
    <rect x="784" y="8" width="4" height="4" fill="#00FF9F" opacity="1"/>
    <rect x="792" y="8" width="4" height="4" fill="#00FF9F" opacity="1"/>
    <!-- Animated pulse pixel -->
    <rect x="396" y="6" width="8" height="8" fill="#00FF9F" opacity="0.8">
      <animate attributeName="opacity" values="0.8;0.2;0.8" dur="2s" repeatCount="indefinite"/>
    </rect>
  </g>
</svg>
